# xmcd
#
# Track frame offsets: 
#        150
#        19064
#        37962
#        53808
#        71347
#        90763
#        105975
#        123875
#        144019
#        158546
#        172772
#        191414
#        207436
#        220692
#
# Disc length: 3174 seconds
#
# Revision: 0
# Processed by: cddbd v1.5.1PL0 Copyright (c) Steve Scherf et al.
# Submitted via: ExactAudioCopy v0.90b4
#
DISCID=9e0c640e
DTITLE=Various Artist - Sertanejo Gold
DYEAR=1900
DGENRE=Sertanejo
TTITLE0=Chitãozinho and Xororó - Frio Da Solidão
TTITLE1=Marlon and Maicon - Te Peço,Fica Comigo
TTITLE2=Rio Negro and Solimões - To Por Aí
TTITLE3=Sergio and Tchelo - Te Busquei Nas Avenidas
TTITLE4=Roberta Miranda - A Mulher Em Mim
TTITLE5=Chitãozinho and Xororó, Sérgio Reis - O Menino Da Porteira
TTITLE6=Emílio and Eduardo - Maluco De Paixão
TTITLE7=Marlon and Maicon - Por Te Amar Assim
TTITLE8=André and Adriano - Dose De Paixão
TTITLE9=Brenno Reis and Marco Viola - Prisioneiro
TTITLE10=Tradição - Linda
TTITLE11=Roberta Miranda - Faz Amor Comigo
TTITLE12=Rio Negro and Solimões - Ainda Ontem Chorei De Saudade
TTITLE13=Chitãozinho and Xororó - Causa Perdida
EXTD=
EXTT0=
EXTT1=
EXTT2=
EXTT3=
EXTT4=
EXTT5=
EXTT6=
EXTT7=
EXTT8=
EXTT9=
EXTT10=
EXTT11=
EXTT12=
EXTT13=
PLAYORDER=
